PathFileType	4	(X/Y/Z)	S15T1V11.trc
DataRate	CameraRate	NumFrames	NumMarkers	Units	OrigDataRate	OrigDataStartFrame	OrigNumFrames
200	200	7	39	mm	200	62	99
Frame#	Time	LSHO			RSHO			LICST			RICST			LASIS			RASIS			LTROC			RTROC			SACR			LTH1			LTH2			LTH3			LTH4			RTH1			RTH2			RTH3			RTH4			LLEP			RLEP			LSK1			LSK2			LSK3			LSK4			RSK1			RSK2			RSK3			RSK4			LLME			RLME			LTOE			LHM5			LHEEL			RTOE			RHM5			RHEEL			RFT1			RFT2			LFT1			LFT2		
		X1	Y1	Z1	X2	Y2	Z2	X3	Y3	Z3	X4	Y4	Z4	X5	Y5	Z5	X6	Y6	Z6	X7	Y7	Z7	X8	Y8	Z8	X9	Y9	Z9	X10	Y10	Z10	X11	Y11	Z11	X12	Y12	Z12	X13	Y13	Z13	X14	Y14	Z14	X15	Y15	Z15	X16	Y16	Z16	X17	Y17	Z17	X18	Y18	Z18	X19	Y19	Z19	X20	Y20	Z20	X21	Y21	Z21	X22	Y22	Z22	X23	Y23	Z23	X24	Y24	Z24	X25	Y25	Z25	X26	Y26	Z26	X27	Y27	Z27	X28	Y28	Z28	X29	Y29	Z29	X30	Y30	Z30	X31	Y31	Z31	X32	Y32	Z32	X33	Y33	Z33	X34	Y34	Z34	X35	Y35	Z35	X36	Y36	Z36	X37	Y37	Z37	X38	Y38	Z38	X39	Y39	Z39

62	0.305000	615.752209	1369.513748	-409.293342	707.528217	1373.209057	-88.914011	669.699955	974.652529	-416.278524	680.876937	970.384902	-96.000271	721.824942	926.752745	-399.515751	731.115515	917.865337	-116.223478	594.317233	880.542797	-401.879189	611.847718	861.697194	-98.517002	565.245440	971.986528	-258.915517	806.162433	688.627723	-417.268841	734.111612	646.032137	-406.658412	854.874177	599.954094	-408.999792	790.236364	559.366821	-395.143366	699.489693	650.735908	-91.659073	619.731953	650.211770	-96.409495	701.068577	552.654503	-105.931652	622.384577	550.997541	-110.907510	846.026080	486.490981	-400.011745	641.146367	428.492564	-121.375924	801.310170	392.390022	-402.661348	743.258330	448.797088	-386.988019	730.070181	321.728841	-391.243096	676.416209	377.336778	-372.496134	626.063855	317.645037	-145.875208	563.362979	358.772287	-114.455728	572.063800	236.253377	-167.769793	501.483190	276.354314	-135.935943	599.069006	215.892007	-368.464799	417.236474	118.349460	-181.455730	722.857606	92.014430	-360.376065	661.925886	115.688634	-409.009144	536.326956	223.314511	-298.306778	580.450421	66.463583	-219.213935	518.889910	52.722994	-162.261506	355.329224	118.145029	-242.610577	367.135078	87.090149	-274.073754	350.266122	89.172235	-218.578898	535.293883	192.036994	-274.486709	518.768332	202.627572	-325.850611
63	0.310000	629.265754	1372.573522	-408.944692	724.060350	1377.301303	-90.121617	686.133579	978.877203	-416.194444	698.314504	972.630802	-96.261022	738.356592	931.273082	-399.478097	747.834720	919.541147	-116.744095	611.032646	884.899174	-403.022226	627.675414	864.412944	-99.307058	582.135388	975.382903	-258.893856	824.602015	693.512185	-415.918796	752.865742	650.311810	-405.771020	874.054649	605.204468	-406.843939	809.669326	564.166358	-393.546545	710.073598	652.325157	-92.442058	630.296560	653.738097	-96.997186	709.299885	554.248644	-106.913351	630.448089	554.453536	-111.580269	866.446858	490.844643	-398.130755	646.174810	431.407218	-121.690242	825.538038	394.687263	-400.785516	765.023977	448.472109	-385.955632	757.428438	321.087657	-389.518234	701.268271	374.337462	-371.512006	630.138188	320.643840	-145.583003	567.609194	362.272137	-114.592783	575.846684	239.401629	-166.997783	505.352729	280.189515	-135.857155	631.074265	209.594733	-366.998296	420.547385	122.065802	-180.573159	760.265765	91.537492	-357.011902	698.821761	112.060877	-406.341806	567.390349	214.580889	-297.564209	581.116242	65.940001	-219.114253	519.562523	52.884568	-161.961780	358.792321	123.077521	-241.587406	369.886721	92.137674	-273.254129	353.025837	94.150736	-217.770641	567.540684	183.470376	-273.554810	551.041444	192.914860	-325.072630
64	0.315000	642.905009	1375.703204	-408.622623	740.489674	1381.481552	-91.356421	702.710580	983.190315	-416.069818	715.862960	975.011607	-96.523733	755.004456	935.845409	-399.398771	764.653978	921.363698	-117.247622	627.853298	889.335439	-404.134143	643.617023	867.284112	-100.083271	599.134275	978.869004	-258.869270	842.832656	698.295058	-414.649558	771.349217	654.619671	-404.986104	892.855384	610.283104	-404.827964	828.660020	568.902750	-392.111337	720.836940	654.172776	-93.241448	641.082805	657.499764	-97.605611	717.745990	556.153593	-107.921373	638.764781	558.199822	-112.291088	886.355851	495.032921	-396.412823	651.494534	434.683900	-122.037602	849.406443	396.947830	-399.006814	786.501692	447.963197	-385.061736	784.611141	320.494869	-387.816538	726.013900	371.244865	-370.566062	634.526053	324.010292	-145.296761	572.152195	366.110075	-114.733936	579.976813	242.875520	-166.187818	509.559193	284.325975	-135.762259	663.237154	203.450333	-365.390972	424.277175	126.038930	-179.638443	797.583466	91.509614	-353.436884	735.783536	108.789902	-403.443347	598.774012	205.951577	-296.664916	581.946651	65.315740	-219.018099	520.412486	53.111450	-161.630679	362.787441	128.450314	-240.477533	373.062759	97.637930	-272.355739	356.234056	99.613707	-216.870291	600.117738	175.091424	-272.434725	583.696400	183.344712	-324.095120
65	0.320000	656.680871	1378.875334	-408.331368	756.826479	1385.715524	-92.611682	719.415090	987.550655	-415.906955	733.498006	977.511017	-96.786181	771.755592	940.426931	-399.279942	781.558644	923.321710	-117.726458	644.767863	893.804752	-405.201715	659.663046	870.289204	-100.836146	616.226276	982.411305	-258.843047	860.850823	702.931678	-413.471891	789.557462	658.908450	-404.303528	911.277643	615.143697	-402.968074	847.209517	573.525914	-390.843069	731.804523	656.258247	-94.043091	652.114406	661.466508	-98.225282	726.443640	558.346421	-108.937529	647.372173	562.204595	-113.026892	905.763174	499.014613	-394.864479	657.157910	438.291066	-122.405158	872.910035	399.148805	-397.334149	807.702902	447.258937	-384.304247	811.598653	319.949120	-386.149713	750.650353	368.067344	-369.661228	639.270277	327.713465	-145.008569	577.038674	370.264058	-114.872163	584.482002	246.653129	-165.337230	514.135974	288.748980	-135.646225	695.523641	197.494525	-363.658252	428.435034	130.267846	-178.652780	834.748956	91.948691	-349.678418	772.760748	105.902626	-400.336971	630.444932	197.470758	-295.621253	582.954462	64.613804	-218.917295	521.457083	53.430093	-161.262555	367.331791	134.259141	-239.282365	376.683059	103.589175	-271.379716	359.912921	105.559558	-215.877866	632.983759	166.947941	-271.139663	616.699206	173.968193	-322.932752
66	0.325000	670.602422	1382.063141	-408.074869	773.080557	1389.969671	-93.880930	736.230563	991.917377	-415.708820	751.195161	980.111772	-97.046011	788.596564	944.975687	-399.124562	798.534008	925.402810	-118.173539	661.764008	898.261295	-406.212485	675.803658	873.405247	-101.555868	633.395599	985.976543	-258.816226	878.653538	707.380075	-412.395824	807.487498	663.132576	-403.721047	929.324757	619.743941	-401.278283	865.322037	577.989071	-389.743512	742.999027	658.557517	-94.833354	663.412142	665.604961	-98.846718	735.426737	560.799757	-109.943954	656.304107	566.431927	-113.774462	924.682009	502.752847	-393.489085	663.212620	442.191979	-122.779821	896.044279	401.269134	-395.774285	828.638473	446.351973	-383.677401	838.369736	319.449028	-384.528087	775.171896	364.815404	-368.798287	644.409210	331.717717	-144.710553	582.311373	374.707312	-115.000979	589.386039	250.708751	-164.444182	519.112887	293.439931	-135.504890	727.893859	191.760506	-361.816134	433.026803	134.749129	-177.618879	871.698969	92.866609	-345.766476	809.698403	103.420789	-397.048388	662.362389	189.180832	-294.446282	584.153641	63.861151	-218.802339	522.714523	53.868374	-160.851824	372.437817	140.493232	-238.005756	380.764897	109.982741	-270.329348	364.081265	111.979588	-214.795945	666.090158	159.084672	-269.683957	650.007032	164.833798	-321.601260
67	0.330000	684.676777	1385.240661	-407.856719	789.260922	1394.211442	-95.157953	753.140227	996.250438	-415.478969	768.930384	982.795644	-97.300790	805.513778	949.450995	-398.936284	815.565615	927.593398	-118.582516	678.828674	902.660821	-407.154928	692.028983	876.607963	-102.232443	650.626820	989.532115	-258.789553	896.238547	711.601495	-411.430492	825.138085	667.248765	-403.234558	947.002169	624.046033	-399.770194	883.004945	582.249337	-388.811033	754.440831	661.043340	-95.599393	674.993728	669.879034	-99.460626	744.726106	563.482205	-110.923425	665.590547	570.842220	-114.520702	943.128235	506.215428	-392.286897	669.701353	446.345284	-123.148506	918.805235	403.289675	-394.331845	849.318249	445.238923	-383.171956	864.901515	318.992917	-382.960492	799.569554	361.501316	-367.975876	649.976485	335.983225	-144.395077	588.008816	379.408758	-115.114557	594.708655	255.013227	-163.507808	524.516047	298.376619	-135.335097	760.302154	186.278200	-359.880896	438.055054	139.476942	-176.541084	908.369033	94.268408	-341.733373	846.536940	101.360216	-393.605574	694.478143	181.121699	-293.153354	585.559443	63.088105	-218.662537	524.203870	54.455012	-160.393111	378.112993	147.135298	-236.654208	385.322715	116.802846	-269.210223	368.754251	118.857932	-213.629872	699.381372	151.542447	-268.082687	683.568254	155.986630	-320.116974
68	0.335000	698.908971	1388.382837	-407.680098	805.375572	1398.409515	-96.436780	770.127507	1000.511016	-415.221488	786.680651	985.543432	-97.548078	822.493809	953.813875	-398.719377	832.639559	929.878528	-118.947917	695.948373	906.961150	-408.018609	708.329359	879.871958	-102.855872	667.905185	993.046453	-258.763470	913.604494	715.560847	-410.583981	842.509850	671.216546	-402.838374	964.317479	628.017069	-398.452803	900.268732	586.268224	-388.040830	766.147859	663.685682	-96.329365	686.873734	674.250354	-100.058075	754.369308	566.358861	-111.859613	675.257427	575.392739	-115.252885	961.120066	509.375080	-391.255182	676.661579	450.705685	-123.498352	941.189387	405.193198	-393.009344	869.750693	443.920200	-382.775480	891.169527	318.578530	-381.454173	823.830979	358.138691	-367.190535	656.000869	340.466606	-144.054900	594.165095	384.333521	-115.207804	600.465572	259.534355	-162.528286	530.367798	303.533583	-135.134773	792.697266	181.073559	-357.868811	443.519265	144.443095	-175.425447	944.693831	96.151501	-337.613496	883.212331	99.730154	-390.038501	726.736799	173.330083	-291.755718	587.188496	62.327718	-218.486131	525.944933	55.218942	-159.881366	384.359748	154.161651	-235.236994	390.367960	124.026586	-268.030316	373.943129	126.171667	-212.387891	732.795336	144.357369	-266.351306	717.322691	147.467639	-318.496365
